HIERARCHY
ROOT Hips
{
 OFFSET 0.000000 0.000000 0.000000
 CHANNELS 6 Xposition Yposition Zposition Yrotation Xrotation Zrotation
 JOINT Chest
 {
  OFFSET 0.000000 9.857222 0.000240
  CHANNELS 3 Yrotation Xrotation Zrotation
  JOINT Chest2
  {
   OFFSET 0.000000 10.876940 -0.000436
   CHANNELS 3 Yrotation Xrotation Zrotation
   JOINT Chest3
   {
    OFFSET 0.000000 9.827798 0.000000
    CHANNELS 3 Yrotation Xrotation Zrotation
    JOINT Chest4
    {
     OFFSET 0.000000 9.827798 0.000000
     CHANNELS 3 Yrotation Xrotation Zrotation
     JOINT Neck
     {
      OFFSET 0.000000 13.831992 0.000000
      CHANNELS 3 Yrotation Xrotation Zrotation
      JOINT Head
      {
       OFFSET 0.000000 9.147643 -0.001036
       CHANNELS 3 Yrotation Xrotation Zrotation
       End Site
       {
        OFFSET 0.000000 17.515799 -0.000541
       }
      }
     }
     JOINT RightCollar
     {
      OFFSET -3.001579 7.717577 0.000000
      CHANNELS 3 Yrotation Xrotation Zrotation
      JOINT RightShoulder
      {
       OFFSET -14.002642 0.000000 0.000000
       CHANNELS 3 Yrotation Xrotation Zrotation
       JOINT RightElbow
       {
        OFFSET -30.053852 0.000000 0.000000
        CHANNELS 3 Yrotation Xrotation Zrotation
        JOINT RightWrist
        {
         OFFSET -24.564923 0.000000 -0.000000
         CHANNELS 3 Yrotation Xrotation Zrotation
         End Site
         {
          OFFSET -18.334355 0.000000 0.000000
         }
        }
       }
      }
     }
     JOINT LeftCollar
     {
      OFFSET 3.001579 7.717577 0.000000
      CHANNELS 3 Yrotation Xrotation Zrotation
      JOINT LeftShoulder
      {
       OFFSET 14.002642 0.000000 0.000000
       CHANNELS 3 Yrotation Xrotation Zrotation
       JOINT LeftElbow
       {
        OFFSET 30.053852 0.000000 0.000000
        CHANNELS 3 Yrotation Xrotation Zrotation
        JOINT LeftWrist
        {
         OFFSET 24.564923 0.000000 -0.000000
         CHANNELS 3 Yrotation Xrotation Zrotation
         End Site
         {
          OFFSET 18.334355 0.000000 0.000000
         }
        }
       }
      }
     }
    }
   }
  }
 }
 JOINT RightHip
 {
  OFFSET -8.003235 -0.001175 -0.000120
  CHANNELS 3 Yrotation Xrotation Zrotation
  JOINT RightKnee
  {
   OFFSET 0.000000 -41.759727 0.000113
   CHANNELS 3 Yrotation Xrotation Zrotation
   JOINT RightAnkle
   {
    OFFSET 0.000000 -40.728748 0.000159
    CHANNELS 3 Yrotation Xrotation Zrotation
    JOINT RightToe
    {
     OFFSET 0.000000 -6.515296 14.732841
     CHANNELS 3 Yrotation Xrotation Zrotation
     End Site
     {
      OFFSET 0.000000 -1.502839 6.412115
     }
    }
   }
  }
 }
 JOINT LeftHip
 {
  OFFSET 8.003235 -0.001175 -0.000120
  CHANNELS 3 Yrotation Xrotation Zrotation
  JOINT LeftKnee
  {
   OFFSET 0.000000 -41.759727 0.000113
   CHANNELS 3 Yrotation Xrotation Zrotation
   JOINT LeftAnkle
   {
    OFFSET 0.000000 -40.728748 0.000159
    CHANNELS 3 Yrotation Xrotation Zrotation
    JOINT LeftToe
    {
     OFFSET 0.000000 -6.515296 14.732841
     CHANNELS 3 Yrotation Xrotation Zrotation
     End Site
     {
      OFFSET 0.000000 -1.502839 6.412115
     }
    }
   }
  }
 }
}
MOTION
Frames: 12
Frame Time: 0.016667
0.000000 88.822259 0.000000 0.000000 -5.826342 0.000000 0.000000 11.116423 0.000000 0.000000 -5.290081 0.000000 0.000000 0.000000 0.000000 0.000000 0.000000 0.000000 0.000000 12.665069 0.000000 0.000000 0.575450 0.000000 0.000000 0.000000 0.000000 0.000000 0.000000 0.000000 2.337306 0.000000 0.000000 -2.337306 0.000000 0.000000 0.000000 0.000000 0.000000 0.000000 0.000000 0.000000 -2.337306 0.000000 0.000000 2.337306 0.000000 0.000000 0.000000 8.578828 0.000000 0.000000 1.905768 0.000000 0.000000 -4.658254 0.000000 0.000000 0.000000 0.000000 0.000000 8.578828 0.000000 0.000000 1.905768 0.000000 0.000000 -4.658254 0.000000 0.000000 0.000000 0.000000
-2.362287 90.560690 17.428618 -30.816609 -15.119426 -0.835511 1.314438 6.677610 -0.595793 0.623970 2.952914 -0.291444 0.623970 2.952914 -0.291444 0.469283 2.214391 -0.221552 -4.542530 18.032959 2.838730 -9.298406 -2.325682 6.726000 8.086037 4.918416 11.125263 45.813637 -5.288862 88.399118 13.662751 -0.896148 0.389184 -8.287553 4.188376 -6.625314 -22.893202 8.974969 -11.754686 -25.049358 13.607174 -62.822049 -27.838941 -34.944132 -3.453512 3.849591 6.300295 5.073493 -5.920255 28.046023 -5.908176 5.223060 -7.686087 4.249925 -0.126333 -5.697884 -0.217791 -0.018653 0.085356 -0.091326 1.805100 16.586390 5.047306 -4.560158 2.474420 -5.210540 0.799722 -3.820702 0.014681 0.039329 -0.003867 -0.018278
-2.381040 90.558892 17.405844 -30.748230 -15.161510 -0.810166 1.287963 6.716427 -0.618276 0.621163 2.959821 -0.295528 0.621163 2.959821 -0.295528 0.467201 2.219569 -0.224608 -4.547929 18.036392 2.833719 -9.306397 -2.319320 6.718245 8.163017 4.912828 11.159577 45.695488 -5.313835 88.273018 13.678842 -0.847610 0.474194 -8.146055 4.159836 -6.502286 -22.913147 8.959737 -11.755792 -24.973813 13.695310 -62.656226 -28.224185 -34.764823 -3.511465 3.639661 6.244561 5.116891 -5.947067 28.087019 -5.929151 5.226489 -7.683572 4.236682 -0.101072 -5.730789 -0.192358 -0.069410 0.118431 -0.103959 1.880081 16.613186 5.070662 -4.627230 2.466714 -5.216727 0.745716 -3.811055 -0.004953 0.069454 0.005282 -0.005230
-2.395669 90.557346 17.390571 -30.683714 -15.192854 -0.778075 1.282980 6.753078 -0.634739 0.614946 2.971906 -0.296353 0.614946 2.971906 -0.296353 0.462548 2.228634 -0.225208 -4.557958 18.029342 2.823663 -9.322116 -2.332434 6.703698 8.332253 4.903881 11.236549 45.540449 -5.244173 88.129643 13.858014 -0.860922 0.485340 -7.782055 4.294657 -6.567033 -22.963412 8.954080 -11.765434 -25.082865 13.770063 -62.569259 -28.846680 -35.076211 -3.157688 3.365425 6.279117 5.139168 -6.008573 28.122799 -5.968070 5.238815 -7.690855 4.221426 -0.077754 -5.729674 -0.174448 -0.100455 0.119310 -0.108877 1.985174 16.635160 5.082647 -4.712546 2.447552 -5.207456 0.706862 -3.789567 -0.010944 0.069181 0.007997 -0.007888
-2.402772 90.555491 17.383604 -30.592097 -15.198735 -0.757727 1.274358 6.782946 -0.637631 0.601509 2.985976 -0.292226 0.601509 2.985976 -0.292226 0.452458 2.239197 -0.222061 -4.568811 18.011477 2.807788 -9.338339 -2.366096 6.679725 8.594964 4.881424 11.362042 45.705209 -4.889298 87.833692 14.578198 -1.436155 0.226781 -7.291274 4.642002 -6.742337 -22.999822 9.018515 -11.787732 -25.401437 13.851123 -62.589611 -29.965379 -35.730241 -2.123189 3.070625 6.248563 5.183341 -6.102122 28.134049 -6.020039 5.224724 -7.698980 4.231969 -0.042156 -5.720352 -0.162864 -0.125076 0.112328 -0.112062 2.035708 16.633893 5.061777 -4.785516 2.431837 -5.165150 0.687174 -3.775746 -0.020057 0.066390 0.016865 -0.012216
-2.397298 90.555134 17.376064 -30.488429 -15.202293 -0.754242 1.261354 6.814642 -0.615761 0.580914 3.007234 -0.282030 0.580914 3.007234 -0.282030 0.436974 2.255161 -0.214335 -4.573729 17.972699 2.786521 -9.343626 -2.439612 6.645834 8.871181 4.825388 11.478972 45.860395 -4.388796 87.333188 15.850565 -2.241787 -0.266237 -6.792904 4.710043 -6.834376 -22.963666 9.067736 -11.791360 -25.527174 13.855741 -62.626610 -31.550735 -36.661839 -0.652430 2.801434 6.237397 5.347149 -6.204113 28.133529 -6.062125 5.173916 -7.699545 4.258553 -0.001070 -5.698930 -0.159859 -0.132731 0.098523 -0.110219 2.019201 16.623177 5.027334 -4.816497 2.428282 -5.116201 0.691152 -3.763694 -0.027902 0.059928 0.027234 -0.015791
-2.384410 90.559530 17.360904 -30.394833 -15.244223 -0.764818 1.246938 6.881906 -0.568775 0.561790 3.048258 -0.264896 0.561790 3.048258 -0.264896 0.422565 2.285953 -0.201430 -4.573450 17.900649 2.762516 -9.341208 -2.575510 6.608256 9.128471 4.583081 11.544767 45.378426 -4.067122 86.907269 17.295612 -2.295514 -0.711849 -6.433637 4.515495 -7.055938 -22.865513 9.042941 -11.745256 -25.197115 13.651818 -62.598316 -33.479221 -37.847906 1.051016 2.615940 6.351913 5.606475 -6.338265 28.160892 -6.121798 5.166078 -7.704984 4.299222 0.030920 -5.658577 -0.160844 -0.139642 0.076505 -0.109362 1.989155 16.641883 5.027622 -4.834910 2.427759 -5.104773 0.655672 -3.735034 -0.029163 0.071892 0.025937 -0.010488
-2.365341 90.566423 17.339079 -30.331830 -15.261149 -0.774712 1.231419 6.953129 -0.516774 0.547562 3.088396 -0.243954 0.547562 3.088396 -0.243954 0.411806 2.316081 -0.185691 -4.561751 17.808654 2.731146 -9.316979 -2.750198 6.555197 9.358658 4.350107 11.559755 44.431965 -4.029841 86.444782 18.788113 -1.370129 -0.962811 -6.257962 4.279132 -7.445825 -22.709057 9.005953 -11.646463 -24.619446 13.381703 -62.484453 -35.784498 -39.005538 2.861709 2.486300 6.515546 5.974943 -6.478640 28.149650 -6.179910 5.204947 -7.702938 4.324974 0.039558 -5.620845 -0.156695 -0.138926 0.059443 -0.107384 1.929411 16.630187 5.003376 -4.819961 2.436661 -5.079274 0.662770 -3.702196 -0.031689 0.074468 0.019797 -0.007698
-2.338839 90.571740 17.312556 -30.263955 -15.252644 -0.801608 1.201424 7.025410 -0.454895 0.534176 3.119763 -0.219414 0.534176 3.119763 -0.219414 0.401654 2.339633 -0.167249 -4.539036 17.714632 2.691487 -9.269825 -2.930532 6.483387 9.478590 4.188858 11.499985 43.370486 -3.974278 85.648895 20.504525 0.165745 -0.889126 -6.162352 4.057226 -7.854429 -22.530233 8.955673 -11.518419 -23.942569 13.116930 -62.314583 -38.293553 -39.477635 4.508595 2.401090 6.473316 6.403033 -6.644894 28.117894 -6.187668 5.263071 -7.707473 4.306560 -0.030278 -5.578092 -0.179186 -0.050534 0.042226 -0.068482 1.861212 16.587876 4.937978 -4.783112 2.456925 -4.981120 0.717879 -3.677093 -0.033553 0.020491 0.020891 -0.028481
-2.307413 90.576345 17.281300 -30.205960 -15.237979 -0.834881 1.171330 7.084244 -0.398264 0.521502 3.144332 -0.197746 0.521502 3.144332 -0.197746 0.392047 2.358083 -0.150958 -4.500359 17.640847 2.652108 -9.191606 -3.074853 6.404856 9.509882 4.046138 11.406289 42.549601 -3.756312 84.562144 22.512822 1.725105 -0.671755 -6.106686 3.885019 -8.110909 -22.365091 8.903667 -11.369248 -23.108473 12.871886 -62.010458 -40.884943 -39.199781 6.203872 2.406577 6.375238 6.328389 -6.838368 28.075135 -6.198833 5.342574 -7.715788 4.286690 -0.061514 -5.528656 -0.191024 0.008363 0.025122 -0.043634 1.815023 16.532251 4.887900 -4.747269 2.485500 -4.891911 0.742770 -3.648675 -0.042331 -0.008195 0.015947 -0.036587
-2.276284 90.581799 17.237082 -30.182212 -15.183187 -0.879968 1.160797 7.100670 -0.337483 0.512523 3.151608 -0.181101 0.512523 3.151608 -0.181101 0.385230 2.363557 -0.138437 -4.451313 17.600314 2.617329 -9.093008 -3.158054 6.328235 9.443662 3.973250 11.281196 42.213531 -3.603391 83.493970 24.632095 2.984389 -0.629992 -6.048705 3.668814 -8.162781 -22.244634 8.846718 -11.219995 -22.430629 12.772389 -61.645106 -43.678260 -38.892295 7.605360 2.523738 6.578209 6.350725 -6.994525 27.980297 -6.189711 5.445754 -7.718250 4.271674 -0.103068 -5.510053 -0.202410 0.063752 0.044422 -0.020311 1.737960 16.429121 4.871992 -4.658386 2.518999 -4.838478 0.735379 -3.648530 -0.051812 -0.028938 0.041952 -0.041093
-2.255356 90.587370 17.179731 -30.183339 -15.122076 -0.931856 1.157291 7.098440 -0.281874 0.510618 3.147898 -0.171018 0.510618 3.147898 -0.171018 0.383749 2.360783 -0.130864 -4.399084 17.587797 2.596263 -8.990802 -3.188223 6.273215 9.336139 4.037746 11.170848 42.296365 -3.635053 82.402280 26.781980 3.739475 -0.789111 -5.991487 3.426592 -8.005264 -22.202372 8.821204 -11.098593 -22.014788 12.748443 -61.242181 -46.603502 -38.185307 8.917536 2.716427 6.436864 6.303920 -7.123504 27.880128 -6.145683 5.560281 -7.726534 4.237488 -0.176413 -5.482732 -0.225966 0.146237 0.062249 0.015690 1.679160 16.313883 4.878384 -4.597952 2.555922 -4.795108 0.791135 -3.648851 -0.065701 -0.051471 0.065892 -0.047017
